<?xml version="1.0" encoding="UTF-8"?>
<svg xmlns="http://www.w3.org/2000/svg" viewBox="0 0 80 80" width="400" height="400">
  <rect width="80" height="80" fill="#ffffff"/>
  <rect x="2" y="2" width="76" height="76" rx="4" fill="none" stroke="#ff0000" stroke-width="0.4"/>
  <g transform="translate(40 38)" fill="none" stroke="#000" stroke-width="0.3" stroke-linejoin="round" stroke-linecap="round">
    <g transform="translate(0.00 -15.00)">
      <circle r="2.7" stroke-width="0.3"/>
      <path d="M 0,-2.7 A 2.7,2.7 0 0,0 0,2.7 A 2.7,2.7 0 0,0 0,-2.7 Z" fill="#000" stroke="none"/>
    </g>
    <g transform="translate(7.50 -12.99)">
      <circle r="2.7" stroke-width="0.3"/>
      <path d="M 0,-2.7 A 2.2500000000000004,2.7 0 0,0 0,2.7 A 2.7,2.7 0 0,0 0,-2.7 Z" fill="#000" stroke="none"/>
    </g>
    <g transform="translate(12.99 -7.50)">
      <circle r="2.7" stroke-width="0.3"/>
      <path d="M 0,-2.7 A 1.8000000000000003,2.7 0 0,0 0,2.7 A 2.7,2.7 0 0,0 0,-2.7 Z" fill="#000" stroke="none"/>
    </g>
    <g transform="translate(15.00 0.00)">
      <circle r="2.7" stroke-width="0.3"/>
      <path d="M 0,-2.7 A 1.35,2.7 0 0,0 0,2.7 A 2.7,2.7 0 0,0 0,-2.7 Z" fill="#000" stroke="none"/>
    </g>
    <g transform="translate(12.99 7.50)">
      <circle r="2.7" stroke-width="0.3"/>
      <path d="M 0,-2.7 A 0.9000000000000001,2.7 0 0,0 0,2.7 A 2.7,2.7 0 0,0 0,-2.7 Z" fill="#000" stroke="none"/>
    </g>
    <g transform="translate(7.50 12.99)">
      <circle r="2.7" stroke-width="0.3"/>
      <path d="M 0,-2.7 A 0.44999999999999996,2.7 0 0,0 0,2.7 A 2.7,2.7 0 0,0 0,-2.7 Z" fill="#000" stroke="none"/>
    </g>
    <g transform="translate(0.00 15.00)">
      <circle r="2.7" stroke-width="0.3"/>
      <path d="M 0,-2.7 A 0.0,2.7 0 0,1 0,2.7 A 2.7,2.7 0 0,0 0,-2.7 Z" fill="#000" stroke="none"/>
    </g>
    <g transform="translate(-7.50 12.99)">
      <circle r="2.7" stroke-width="0.3"/>
      <path d="M 0,-2.7 A 0.45000000000000023,2.7 0 0,1 0,2.7 A 2.7,2.7 0 0,0 0,-2.7 Z" fill="#000" stroke="none"/>
    </g>
    <g transform="translate(-12.99 7.50)">
      <circle r="2.7" stroke-width="0.3"/>
      <path d="M 0,-2.7 A 0.8999999999999999,2.7 0 0,1 0,2.7 A 2.7,2.7 0 0,0 0,-2.7 Z" fill="#000" stroke="none"/>
    </g>
    <g transform="translate(-15.00 0.00)">
      <circle r="2.7" stroke-width="0.3"/>
      <path d="M 0,-2.7 A 1.35,2.7 0 0,1 0,2.7 A 2.7,2.7 0 0,0 0,-2.7 Z" fill="#000" stroke="none"/>
    </g>
    <g transform="translate(-12.99 -7.50)">
      <circle r="2.7" stroke-width="0.3"/>
      <path d="M 0,-2.7 A 1.8000000000000003,2.7 0 0,1 0,2.7 A 2.7,2.7 0 0,0 0,-2.7 Z" fill="#000" stroke="none"/>
    </g>
    <g transform="translate(-7.50 -12.99)">
      <circle r="2.7" stroke-width="0.3"/>
      <path d="M 0,-2.7 A 2.25,2.7 0 0,1 0,2.7 A 2.7,2.7 0 0,0 0,-2.7 Z" fill="#000" stroke="none"/>
    </g>
    <circle r="22" stroke-width="0.35"/>
    <circle r="5" stroke-width="0.25"/>
    <circle r="1" fill="#000" stroke="none"/>
  </g>
  <g transform="translate(7 7) scale(0.045)">
    <path d="M 0,0 C 6,-22 16,-44 6,-78 C -8,-72 -22,-58 -18,-38 C -14,-22 -4,-10 0,0 Z" fill="#000" transform="rotate(0)"/>
    <path d="M 0,0 C 6,-22 16,-44 6,-78 C -8,-72 -22,-58 -18,-38 C -14,-22 -4,-10 0,0 Z" fill="#000" transform="rotate(45)"/>
    <path d="M 0,0 C 6,-22 16,-44 6,-78 C -8,-72 -22,-58 -18,-38 C -14,-22 -4,-10 0,0 Z" fill="#000" transform="rotate(90)"/>
    <path d="M 0,0 C 6,-22 16,-44 6,-78 C -8,-72 -22,-58 -18,-38 C -14,-22 -4,-10 0,0 Z" fill="#000" transform="rotate(135)"/>
    <path d="M 0,0 C 6,-22 16,-44 6,-78 C -8,-72 -22,-58 -18,-38 C -14,-22 -4,-10 0,0 Z" fill="#000" transform="rotate(180)"/>
    <path d="M 0,0 C 6,-22 16,-44 6,-78 C -8,-72 -22,-58 -18,-38 C -14,-22 -4,-10 0,0 Z" fill="#000" transform="rotate(225)"/>
    <path d="M 0,0 C 6,-22 16,-44 6,-78 C -8,-72 -22,-58 -18,-38 C -14,-22 -4,-10 0,0 Z" fill="#000" transform="rotate(270)"/>
    <path d="M 0,0 C 6,-22 16,-44 6,-78 C -8,-72 -22,-58 -18,-38 C -14,-22 -4,-10 0,0 Z" fill="#000" transform="rotate(315)"/>
  </g>
  <text x="73" y="10" text-anchor="end" font-family="EB Garamond, Georgia, serif" font-style="italic" font-size="3.5" fill="#000">N° 08</text>
  <text x="7" y="75" font-family="EB Garamond, Georgia, serif" font-style="italic" font-size="2.6" letter-spacing="0.04em" fill="#000">by siddhartha</text>
  <text x="73" y="75" text-anchor="end" font-family="EB Garamond, Georgia, serif" font-style="italic" font-size="6" fill="#000">moon</text>
</svg>