<?xml version="1.0" encoding="UTF-8"?>
<!-- ACRYLIC CARD · 03-bloom · bloom
     Physical: 76mm × 76mm (3"×3") square with rounded corners
     Material: clear or frosted acrylic
     Process: RED line cuts the card · BLACK lines engrave (turn frosted-white)
     -->
<svg xmlns="http://www.w3.org/2000/svg" viewBox="0 0 80 80" width="400" height="400">
  <rect width="80" height="80" fill="#ffffff"/>
  <rect x="2" y="2" width="76" height="76" rx="4" fill="none" stroke="#ff0000" stroke-width="0.4"/>
  <g transform="translate(8 8) scale(0.04)">
    <path d="M 0,0 C 6,-22 16,-44 6,-78 C -8,-72 -22,-58 -18,-38 C -14,-22 -4,-10 0,0 Z" fill="#000" transform="rotate(0)"/>
    <path d="M 0,0 C 6,-22 16,-44 6,-78 C -8,-72 -22,-58 -18,-38 C -14,-22 -4,-10 0,0 Z" fill="#000" transform="rotate(45)"/>
    <path d="M 0,0 C 6,-22 16,-44 6,-78 C -8,-72 -22,-58 -18,-38 C -14,-22 -4,-10 0,0 Z" fill="#000" transform="rotate(90)"/>
    <path d="M 0,0 C 6,-22 16,-44 6,-78 C -8,-72 -22,-58 -18,-38 C -14,-22 -4,-10 0,0 Z" fill="#000" transform="rotate(135)"/>
    <path d="M 0,0 C 6,-22 16,-44 6,-78 C -8,-72 -22,-58 -18,-38 C -14,-22 -4,-10 0,0 Z" fill="#000" transform="rotate(180)"/>
    <path d="M 0,0 C 6,-22 16,-44 6,-78 C -8,-72 -22,-58 -18,-38 C -14,-22 -4,-10 0,0 Z" fill="#000" transform="rotate(225)"/>
    <path d="M 0,0 C 6,-22 16,-44 6,-78 C -8,-72 -22,-58 -18,-38 C -14,-22 -4,-10 0,0 Z" fill="#000" transform="rotate(270)"/>
    <path d="M 0,0 C 6,-22 16,-44 6,-78 C -8,-72 -22,-58 -18,-38 C -14,-22 -4,-10 0,0 Z" fill="#000" transform="rotate(315)"/>
  </g>
  <g transform="translate(40 36)" fill="none" stroke="#000" stroke-width="0.3">
    <circle cx="-1.62" cy="1.49" r="0.51" fill="#000" stroke="none"/>
    <circle cx="0.27" cy="-3.10" r="0.52" fill="#000" stroke="none"/>
    <circle cx="2.32" cy="3.02" r="0.54" fill="#000" stroke="none"/>
    <circle cx="-4.33" cy="-0.77" r="0.55" fill="#000" stroke="none"/>
    <circle cx="4.15" cy="-2.64" r="0.56" fill="#000" stroke="none"/>
    <circle cx="-1.40" cy="5.20" r="0.57" fill="#000" stroke="none"/>
    <circle cx="-2.68" cy="-5.17" r="0.58" fill="#000" stroke="none"/>
    <circle cx="5.84" cy="2.13" r="0.60" fill="#000" stroke="none"/>
    <circle cx="-6.10" cy="2.52" r="0.61" fill="#000" stroke="none"/>
    <circle cx="2.95" cy="-6.30" r="0.62" fill="#000" stroke="none"/>
    <circle cx="2.18" cy="6.96" r="0.63" fill="#000" stroke="none"/>
    <circle cx="-6.59" cy="-3.82" r="0.64" fill="#000" stroke="none"/>
    <circle cx="7.75" cy="-1.70" r="0.66" fill="#000" stroke="none"/>
    <circle cx="-4.73" cy="6.73" r="0.67" fill="#000" stroke="none"/>
    <circle cx="-1.09" cy="-8.45" r="0.68" fill="#000" stroke="none"/>
    <circle cx="6.73" cy="5.67" r="0.69" fill="#000" stroke="none"/>
    <circle cx="-9.06" cy="0.37" r="0.70" fill="#000" stroke="none"/>
    <circle cx="6.62" cy="-6.58" r="0.72" fill="#000" stroke="none"/>
    <circle cx="-0.44" cy="9.58" r="0.73" fill="#000" stroke="none"/>
    <circle cx="-6.30" cy="-7.55" r="0.74" fill="#000" stroke="none"/>
    <circle cx="9.99" cy="1.34" r="0.75" fill="#000" stroke="none"/>
    <circle cx="-8.47" cy="5.89" r="0.76" fill="#000" stroke="none"/>
    <circle cx="2.32" cy="-10.29" r="0.78" fill="#000" stroke="none"/>
    <circle cx="5.36" cy="9.35" r="0.79" fill="#000" stroke="none"/>
    <circle cx="-10.48" cy="-3.34" r="0.80" fill="#000" stroke="none"/>
    <circle cx="10.18" cy="-4.71" r="0.81" fill="#000" stroke="none"/>
    <circle cx="-4.41" cy="10.55" r="0.82" fill="#000" stroke="none"/>
    <circle cx="-3.94" cy="-10.95" r="0.84" fill="#000" stroke="none"/>
    <circle cx="10.49" cy="5.51" r="0.85" fill="#000" stroke="none"/>
    <circle cx="-11.65" cy="3.07" r="0.86" fill="#000" stroke="none"/>
    <circle cx="6.62" cy="-10.30" r="0.87" fill="#000" stroke="none"/>
    <circle cx="2.11" cy="12.27" r="0.88" fill="#000" stroke="none"/>
    <circle cx="-9.99" cy="-7.74" r="0.90" fill="#000" stroke="none"/>
    <circle cx="12.78" cy="-1.06" r="0.91" fill="#000" stroke="none"/>
    <circle cx="-8.84" cy="9.55" r="0.92" fill="#000" stroke="none"/>
    <circle cx="0.06" cy="-13.20" r="0.93" fill="#000" stroke="none"/>
    <circle cx="8.99" cy="9.91" r="0.94" fill="#000" stroke="none"/>
    <circle cx="-13.50" cy="-1.25" r="0.96" fill="#000" stroke="none"/>
    <circle cx="10.94" cy="-8.31" r="0.97" fill="#000" stroke="none"/>
    <circle cx="-2.49" cy="13.69" r="0.98" fill="#000" stroke="none"/>
    <circle cx="-7.50" cy="-11.92" r="0.99" fill="#000" stroke="none"/>
    <circle cx="13.75" cy="3.77" r="1.00" fill="#000" stroke="none"/>
    <circle cx="-12.83" cy="6.59" r="1.02" fill="#000" stroke="none"/>
    <circle cx="5.07" cy="-13.68" r="1.03" fill="#000" stroke="none"/>
    <circle cx="5.56" cy="13.67" r="1.04" fill="#000" stroke="none"/>
    <circle cx="-13.48" cy="-6.39" r="1.05" fill="#000" stroke="none"/>
    <circle cx="14.41" cy="-4.44" r="1.06" fill="#000" stroke="none"/>
    <circle cx="-7.71" cy="13.15" r="1.08" fill="#000" stroke="none"/>
    <circle cx="-3.23" cy="-15.06" r="1.09" fill="#000" stroke="none"/>
    <circle cx="12.68" cy="9.01" r="1.10" fill="#000" stroke="none"/>
    <circle cx="-15.59" cy="1.94" r="1.11" fill="#000" stroke="none"/>
    <circle cx="10.28" cy="-12.08" r="1.12" fill="#000" stroke="none"/>
    <circle cx="0.58" cy="16.01" r="1.14" fill="#000" stroke="none"/>
    <circle cx="-11.35" cy="-11.51" r="1.15" fill="#000" stroke="none"/>
    <circle cx="16.29" cy="0.83" r="1.16" fill="#000" stroke="none"/>
    <circle cx="-12.69" cy="10.49" r="1.17" fill="#000" stroke="none"/>
    <circle cx="2.30" cy="-16.45" r="1.18" fill="#000" stroke="none"/>
    <circle cx="9.50" cy="13.80" r="1.20" fill="#000" stroke="none"/>
    <circle cx="-16.47" cy="-3.79" r="1.21" fill="#000" stroke="none"/>
    <circle cx="14.83" cy="-8.40" r="1.22" fill="#000" stroke="none"/>
    <circle cx="-5.30" cy="16.34" r="1.23" fill="#000" stroke="none"/>
    <circle cx="-7.19" cy="-15.76" r="1.24" fill="#000" stroke="none"/>
    <circle cx="16.08" cy="6.82" r="1.26" fill="#000" stroke="none"/>
    <circle cx="-16.59" cy="5.88" r="1.27" fill="#000" stroke="none"/>
    <circle r="27" stroke-width="0.3"/>
  </g>
  <text x="40" y="72" text-anchor="middle" font-family="EB Garamond, Garamond, Georgia, serif" font-style="italic" font-size="5" fill="#000">bloom</text>
</svg>