<?xml version="1.0" encoding="UTF-8"?>
<svg xmlns="http://www.w3.org/2000/svg" viewBox="-75 -75 150 150" width="600" height="600">
  <circle r="58" fill="none" stroke="#000" stroke-width="0.3" stroke-dasharray="0.6,1.2" opacity="0.35"/>
  <circle r="7.5" fill="none" stroke="#000" stroke-width="0.4"/>
  <circle r="11" fill="none" stroke="#000" stroke-width="0.3" stroke-dasharray="0.4,0.8" opacity="0.25"/>
  <g fill="none" stroke="#000" stroke-width="0.5">
    <circle cx="0.00" cy="0.00" r="14"/>
    <circle cx="0.00" cy="-14.00" r="14"/>
    <circle cx="12.12" cy="-7.00" r="14"/>
    <circle cx="12.12" cy="7.00" r="14"/>
    <circle cx="0.00" cy="14.00" r="14"/>
    <circle cx="-12.12" cy="7.00" r="14"/>
    <circle cx="-12.12" cy="-7.00" r="14"/>
    <circle r="42"/>
  </g>
  <g transform="translate(-63 -64) scale(0.075)">
    <path d="M 0,0 C 6,-22 16,-44 6,-78 C -8,-72 -22,-58 -18,-38 C -14,-22 -4,-10 0,0 Z" fill="#000" transform="rotate(0)"/>
    <path d="M 0,0 C 6,-22 16,-44 6,-78 C -8,-72 -22,-58 -18,-38 C -14,-22 -4,-10 0,0 Z" fill="#000" transform="rotate(45)"/>
    <path d="M 0,0 C 6,-22 16,-44 6,-78 C -8,-72 -22,-58 -18,-38 C -14,-22 -4,-10 0,0 Z" fill="#000" transform="rotate(90)"/>
    <path d="M 0,0 C 6,-22 16,-44 6,-78 C -8,-72 -22,-58 -18,-38 C -14,-22 -4,-10 0,0 Z" fill="#000" transform="rotate(135)"/>
    <path d="M 0,0 C 6,-22 16,-44 6,-78 C -8,-72 -22,-58 -18,-38 C -14,-22 -4,-10 0,0 Z" fill="#000" transform="rotate(180)"/>
    <path d="M 0,0 C 6,-22 16,-44 6,-78 C -8,-72 -22,-58 -18,-38 C -14,-22 -4,-10 0,0 Z" fill="#000" transform="rotate(225)"/>
    <path d="M 0,0 C 6,-22 16,-44 6,-78 C -8,-72 -22,-58 -18,-38 C -14,-22 -4,-10 0,0 Z" fill="#000" transform="rotate(270)"/>
    <path d="M 0,0 C 6,-22 16,-44 6,-78 C -8,-72 -22,-58 -18,-38 C -14,-22 -4,-10 0,0 Z" fill="#000" transform="rotate(315)"/>
  </g>
  <text x="70" y="-62" text-anchor="end" font-family="EB Garamond, Georgia, serif" font-style="italic" font-size="5" fill="#000">N° 05</text>
  <text x="-65" y="70" font-family="EB Garamond, Georgia, serif" font-style="italic" font-size="4" letter-spacing="0.05em" fill="#000">by siddhartha</text>
  <text x="70" y="70" text-anchor="end" font-family="EB Garamond, Georgia, serif" font-style="italic" font-size="9" fill="#000">flower</text>
</svg>