<?xml version="1.0" encoding="UTF-8"?>
<!-- CD 17 · now · 150×150mm square. Mandala center, 4 corner labels.
     For LASER ENGRAVE on CD: only the round area within r=58 engraves.
     For PRINT on paper/film: full square prints with all 4 corners visible.
     Convert <text> to outlines in Illustrator before sending to laser. -->
<svg xmlns="http://www.w3.org/2000/svg" viewBox="-75 -75 150 150" width="600" height="600">
  <circle r="58" fill="none" stroke="#000" stroke-width="0.3" stroke-dasharray="0.6,1.2" opacity="0.35"/>
  <circle r="7.5" fill="none" stroke="#000" stroke-width="0.4"/>
  <circle r="11" fill="none" stroke="#000" stroke-width="0.3" stroke-dasharray="0.4,0.8" opacity="0.25"/>
  <g fill="none" stroke="#000" stroke-width="0.5">
    <circle r="26"/>
    <circle r="34"/>
    <circle r="42"/>
    <circle r="50"/>
    <path id="r0" d="M 0,-28 A 28,28 0 1,1 0,28 A 28,28 0 1,1 0,-28" fill="none" stroke="none"/>
    <text font-family="EB Garamond, Georgia, serif" font-style="italic" font-size="3.6" fill="#000" stroke="none"><textPath href="#r0" startOffset="0">be here now · be here now · be here now · be here now · be here now · be here now · be here now · be here now · </textPath></text>
    <path id="r1" d="M 0,-36 A 36,36 0 1,1 0,36 A 36,36 0 1,1 0,-36" fill="none" stroke="none"/>
    <text font-family="EB Garamond, Georgia, serif" font-style="italic" font-size="3.6" fill="#000" stroke="none"><textPath href="#r1" startOffset="8">be here now · be here now · be here now · be here now · be here now · be here now · be here now · be here now · </textPath></text>
    <path id="r2" d="M 0,-44 A 44,44 0 1,1 0,44 A 44,44 0 1,1 0,-44" fill="none" stroke="none"/>
    <text font-family="EB Garamond, Georgia, serif" font-style="italic" font-size="3.6" fill="#000" stroke="none"><textPath href="#r2" startOffset="16">be here now · be here now · be here now · be here now · be here now · be here now · be here now · be here now · </textPath></text>
    <path id="r3" d="M 0,-52 A 52,52 0 1,1 0,52 A 52,52 0 1,1 0,-52" fill="none" stroke="none"/>
    <text font-family="EB Garamond, Georgia, serif" font-style="italic" font-size="3.6" fill="#000" stroke="none"><textPath href="#r3" startOffset="24">be here now · be here now · be here now · be here now · be here now · be here now · be here now · be here now · </textPath></text>
  </g>
  <g transform="translate(-65 -62)">
    <g transform="scale(0.06)">
      <path d="M 0,0 C 6,-22 16,-44 6,-78 C -8,-72 -22,-58 -18,-38 C -14,-22 -4,-10 0,0 Z" fill="#000" stroke="none" transform="rotate(0)"/>
      <path d="M 0,0 C 6,-22 16,-44 6,-78 C -8,-72 -22,-58 -18,-38 C -14,-22 -4,-10 0,0 Z" fill="#000" stroke="none" transform="rotate(45)"/>
      <path d="M 0,0 C 6,-22 16,-44 6,-78 C -8,-72 -22,-58 -18,-38 C -14,-22 -4,-10 0,0 Z" fill="#000" stroke="none" transform="rotate(90)"/>
      <path d="M 0,0 C 6,-22 16,-44 6,-78 C -8,-72 -22,-58 -18,-38 C -14,-22 -4,-10 0,0 Z" fill="#000" stroke="none" transform="rotate(135)"/>
      <path d="M 0,0 C 6,-22 16,-44 6,-78 C -8,-72 -22,-58 -18,-38 C -14,-22 -4,-10 0,0 Z" fill="#000" stroke="none" transform="rotate(180)"/>
      <path d="M 0,0 C 6,-22 16,-44 6,-78 C -8,-72 -22,-58 -18,-38 C -14,-22 -4,-10 0,0 Z" fill="#000" stroke="none" transform="rotate(225)"/>
      <path d="M 0,0 C 6,-22 16,-44 6,-78 C -8,-72 -22,-58 -18,-38 C -14,-22 -4,-10 0,0 Z" fill="#000" stroke="none" transform="rotate(270)"/>
      <path d="M 0,0 C 6,-22 16,-44 6,-78 C -8,-72 -22,-58 -18,-38 C -14,-22 -4,-10 0,0 Z" fill="#000" stroke="none" transform="rotate(315)"/>
    </g>
    <text x="8" y="2" font-family="Helvetica, Arial Black, sans-serif" font-weight="900" font-size="5" letter-spacing="-0.2" fill="#000">BLOOM</text>
  </g>
  <text x="70" y="-62" text-anchor="end" font-family="EB Garamond, Georgia, serif" font-style="italic" font-size="5" fill="#000">N° 17</text>
  <text x="-65" y="70" font-family="Helvetica, Arial, sans-serif" font-size="3.2" letter-spacing="0.15em" fill="#000">bloom · 2026</text>
  <text x="70" y="70" text-anchor="end" font-family="EB Garamond, Georgia, serif" font-style="italic" font-size="9" fill="#000">now</text>
</svg>