<?xml version="1.0" encoding="UTF-8"?>
<!-- CUBE FACE 04 · Surveillance · Open eye · laser engrave on glass cube face (or mirror). Scale to your face size (typical: 60-100mm). Low power, single pass. -->
<svg xmlns="http://www.w3.org/2000/svg" viewBox="-50 -50 100 100" width="400" height="400">
  <g fill="none" stroke="#000" stroke-width="0.6">
    <path d="M -40,0 Q 0,-22 40,0 Q 0,22 -40,0 Z" stroke-width="1"/>
    <circle r="14"/>
    <line x1="0" y1="-13" x2="0" y2="-5" transform="rotate(0.0)" stroke-width="0.4"/>
    <line x1="0" y1="-13" x2="0" y2="-5" transform="rotate(22.5)" stroke-width="0.4"/>
    <line x1="0" y1="-13" x2="0" y2="-5" transform="rotate(45.0)" stroke-width="0.4"/>
    <line x1="0" y1="-13" x2="0" y2="-5" transform="rotate(67.5)" stroke-width="0.4"/>
    <line x1="0" y1="-13" x2="0" y2="-5" transform="rotate(90.0)" stroke-width="0.4"/>
    <line x1="0" y1="-13" x2="0" y2="-5" transform="rotate(112.5)" stroke-width="0.4"/>
    <line x1="0" y1="-13" x2="0" y2="-5" transform="rotate(135.0)" stroke-width="0.4"/>
    <line x1="0" y1="-13" x2="0" y2="-5" transform="rotate(157.5)" stroke-width="0.4"/>
    <line x1="0" y1="-13" x2="0" y2="-5" transform="rotate(180.0)" stroke-width="0.4"/>
    <line x1="0" y1="-13" x2="0" y2="-5" transform="rotate(202.5)" stroke-width="0.4"/>
    <line x1="0" y1="-13" x2="0" y2="-5" transform="rotate(225.0)" stroke-width="0.4"/>
    <line x1="0" y1="-13" x2="0" y2="-5" transform="rotate(247.5)" stroke-width="0.4"/>
    <line x1="0" y1="-13" x2="0" y2="-5" transform="rotate(270.0)" stroke-width="0.4"/>
    <line x1="0" y1="-13" x2="0" y2="-5" transform="rotate(292.5)" stroke-width="0.4"/>
    <line x1="0" y1="-13" x2="0" y2="-5" transform="rotate(315.0)" stroke-width="0.4"/>
    <line x1="0" y1="-13" x2="0" y2="-5" transform="rotate(337.5)" stroke-width="0.4"/>
    <circle r="6" fill="#000" stroke="none"/>
    <circle cx="-2" cy="-2" r="1.5"/>
    <line x1="-44" y1="0" x2="-42" y2="0"/>
    <line x1="42" y1="0" x2="44" y2="0"/>
    <line x1="0" y1="-25" x2="0" y2="-23"/>
    <line x1="0" y1="23" x2="0" y2="25"/>
  </g>
</svg>